<?xml version="1.0" encoding="utf-8"?>
<!-- Generator: Adobe Illustrator 21.0.0, SVG Export Plug-In . SVG Version: 6.00 Build 0)  -->
<svg version="1.1" id="图层_1" xmlns="http://www.w3.org/2000/svg" xmlns:xlink="http://www.w3.org/1999/xlink" x="0px" y="0px"
	 viewBox="0 0 32 32" style="enable-background:new 0 0 32 32;" xml:space="preserve">
<style type="text/css">
	.st0{fill:#F6DF46;}
</style>
<g>
	<g>
		<circle class="st0" cx="16" cy="16" r="8"/>
	</g>
	<g>
		<g>
			<path class="st0" d="M16,32c-0.6,0-1-0.4-1-1v-4.2c0-0.6,0.4-1,1-1s1,0.4,1,1V31C17,31.6,16.6,32,16,32z"/>
		</g>
		<g>
			<path class="st0" d="M26.7,27.7c-0.3,0-0.5-0.1-0.7-0.3l-3-3c-0.4-0.4-0.4-1,0-1.4c0.4-0.4,1-0.4,1.4,0l3,3c0.4,0.4,0.4,1,0,1.4
				C27.2,27.6,27,27.7,26.7,27.7z"/>
		</g>
		<g>
			<path class="st0" d="M26.8,17c-0.6,0-1-0.4-1-1c0-0.6,0.4-1,1-1l4.2,0c0.6,0,1,0.4,1,1c0,0.6-0.4,1-1,1L26.8,17z"/>
		</g>
		<g>
			<path class="st0" d="M23.8,9.2c-0.3,0-0.5-0.1-0.7-0.3c-0.4-0.4-0.4-1,0-1.4l3-3c0.4-0.4,1-0.4,1.4,0c0.4,0.4,0.4,1,0,1.4l-3,3
				C24.3,9.1,24,9.2,23.8,9.2z"/>
		</g>
		<g>
			<path class="st0" d="M16,6.2c-0.6,0-1-0.4-1-1V1c0-0.6,0.4-1,1-1s1,0.4,1,1v4.2C17,5.7,16.6,6.2,16,6.2z"/>
		</g>
		<g>
			<path class="st0" d="M8.2,9.2C8,9.2,7.7,9.1,7.5,8.9l-3-3c-0.4-0.4-0.4-1,0-1.4c0.4-0.4,1-0.4,1.4,0l3,3c0.4,0.4,0.4,1,0,1.4
				C8.7,9.1,8.5,9.2,8.2,9.2z"/>
		</g>
		<g>
			<path class="st0" d="M5.2,17L5.2,17L1,17c-0.6,0-1-0.4-1-1s0.4-1,1-1l0,0l4.2,0c0.6,0,1,0.4,1,1S5.7,17,5.2,17z"/>
		</g>
		<g>
			<path class="st0" d="M5.3,27.7c-0.3,0-0.5-0.1-0.7-0.3c-0.4-0.4-0.4-1,0-1.4l3-3c0.4-0.4,1-0.4,1.4,0s0.4,1,0,1.4l-3,3
				C5.8,27.6,5.5,27.7,5.3,27.7z"/>
		</g>
	</g>
</g>
</svg>
